<!DOCTYPE svg PUBLIC "-//W3C//DTD SVG 1.1//EN" "http://www.w3.org/Graphics/SVG/1.1/DTD/svg11.dtd">
<!-- Uploaded to: SVG Repo, www.svgrepo.com, Transformed by: SVG Repo Mixer Tools -->
<svg fill="#000000" width="205px" height="205px" viewBox="0 0 32 32" data-name="Layer 2" id="Layer_2" xmlns="http://www.w3.org/2000/svg">
<g id="SVGRepo_bgCarrier" stroke-width="0"/>
<g id="SVGRepo_tracerCarrier" stroke-linecap="round" stroke-linejoin="round"/>
<g id="SVGRepo_iconCarrier">
<title/>
<path d="M11.19,12.4q4.11.15,8.21,0c1.61-.05,1.62-2.55,0-2.5q-4.09.13-8.21,0c-1.61-.06-1.6,2.44,0,2.5Z"/>
<path d="M13.56,16.79h4.9a1.25,1.25,0,0,0,0-2.5h-4.9a1.25,1.25,0,0,0,0,2.5Z"/>
<path d="M16,21.55l2.68.07a1.25,1.25,0,0,0,0-2.5L16,19.05a1.25,1.25,0,0,0,0,2.5Z"/>
</g>
</svg>